<?xml version="1.0" encoding="UTF-8" standalone="no"?>
<!-- Generator: Adobe Illustrator 24.3.0, SVG Export Plug-In . SVG Version: 6.00 Build 0)  -->

<svg
   version="1.1"
   id="Layer_1"
   x="0px"
   y="0px"
   viewBox="0 0 350 250"
   style="enable-background:new 0 0 350 250;"
   xml:space="preserve"
   sodipodi:docname="logo-scalable.svg"
   inkscape:version="1.3 (0e150ed, 2023-07-21)"
   xmlns:inkscape="http://www.inkscape.org/namespaces/inkscape"
   xmlns:sodipodi="http://sodipodi.sourceforge.net/DTD/sodipodi-0.dtd"
   xmlns="http://www.w3.org/2000/svg"
   xmlns:svg="http://www.w3.org/2000/svg"><defs
   id="defs56" /><sodipodi:namedview
   id="namedview56"
   pagecolor="#ffffff"
   bordercolor="#000000"
   borderopacity="0.25"
   inkscape:showpageshadow="2"
   inkscape:pageopacity="0.0"
   inkscape:pagecheckerboard="0"
   inkscape:deskcolor="#d1d1d1"
   inkscape:zoom="0.944"
   inkscape:cx="175.3178"
   inkscape:cy="151.48305"
   inkscape:window-width="1312"
   inkscape:window-height="449"
   inkscape:window-x="285"
   inkscape:window-y="133"
   inkscape:window-maximized="0"
   inkscape:current-layer="Layer_1" />&#10;<style
   type="text/css"
   id="style1">&#10;	.st0{fill:#202020;}&#10;	.st1{fill:url(#SVGID_1_);enable-background:new    ;}&#10;	.st2{stroke:#000000;stroke-width:0.5981;stroke-miterlimit:10;}&#10;	.st3{fill:#FFFFFF;stroke:#000000;stroke-width:0.6714;stroke-miterlimit:10;}&#10;	.st4{stroke:#000000;stroke-width:0.6764;stroke-miterlimit:10;}&#10;	.st5{stroke:#000000;stroke-width:0.6432;stroke-miterlimit:10;}&#10;	.st6{fill:#FFFFFF;stroke:#000000;stroke-width:0.6432;stroke-miterlimit:10;}&#10;	.st7{stroke:#000000;stroke-width:0.6635;stroke-miterlimit:10;}&#10;	.st8{fill:#FFFFFF;stroke:#000000;stroke-width:0.8625;stroke-miterlimit:10;}&#10;	.st9{fill:#FFFFFF;stroke:#000000;stroke-width:0.841;stroke-miterlimit:10;}&#10;	.st10{stroke:#000000;stroke-width:0.6015;stroke-miterlimit:10;}&#10;	.st11{fill:#FFFFFF;stroke:#000000;stroke-width:0.6085;stroke-miterlimit:10;}&#10;	.st12{fill:none;stroke:#000000;stroke-width:0.0957;stroke-miterlimit:10;}&#10;	.st13{fill:none;stroke:#000000;stroke-width:0.0941;stroke-miterlimit:10;}&#10;	.st14{fill:#FFFFFF;stroke:#000000;stroke-width:0.5822;stroke-miterlimit:10;}&#10;	.st15{stroke:#000000;stroke-width:0.6523;stroke-miterlimit:10;}&#10;	.st16{opacity:0.9;}&#10;	.st17{opacity:0.75;fill:#FFFFFF;enable-background:new    ;}&#10;	.st18{fill:#FFFFFF;stroke:#000000;stroke-width:0.6523;stroke-miterlimit:10;}&#10;	.st19{fill:none;}&#10;	.st20{opacity:0.75;fill:#FFFFFF;}&#10;	.st21{font-family:'Georgia-Bold';}&#10;	.st22{font-size:21px;}&#10;	.st23{stroke:#000000;stroke-width:0.5912;stroke-miterlimit:10;}&#10;	.st24{fill:#FFFFFF;stroke:#000000;stroke-width:0.5912;stroke-miterlimit:10;}&#10;	.st25{fill:#FFFFFF;stroke:#000000;stroke-width:0.5201;stroke-miterlimit:10;}&#10;	.st26{stroke:#000000;stroke-width:0.5116;stroke-miterlimit:10;}&#10;	.st27{fill:#FFFFFF;stroke:#000000;stroke-width:0.5116;stroke-miterlimit:10;}&#10;	.st28{fill:#FFFFFF;stroke:#000000;stroke-width:0.571;stroke-miterlimit:10;}&#10;	.st29{fill:none;stroke:#000000;stroke-width:0.1015;stroke-miterlimit:10;}&#10;	.st30{fill:none;stroke:#000000;stroke-width:0.0998;stroke-miterlimit:10;}&#10;	.st31{fill:#FFFFFF;stroke:#000000;stroke-width:0.5344;stroke-miterlimit:10;}&#10;	.st32{fill:#FFFFFF;stroke:#000000;stroke-width:0.5565;stroke-miterlimit:10;}&#10;	.st33{fill:#FFFFFF;stroke:#000000;stroke-width:0.582;stroke-miterlimit:10;}&#10;	.st34{fill:none;stroke:#000000;stroke-width:2.6776;stroke-miterlimit:10;}&#10;	.st35{stroke:#000000;stroke-width:0.5605;stroke-miterlimit:10;}&#10;	.st36{stroke:#000000;stroke-width:0.4399;stroke-miterlimit:10;}&#10;	.st37{fill:#FFFFFF;stroke:#000000;stroke-width:0.5605;stroke-miterlimit:10;}&#10;	.st38{stroke:#000000;stroke-width:0.4862;stroke-miterlimit:10;}&#10;	.st39{stroke:#000000;stroke-width:0.5296;stroke-miterlimit:10;}&#10;	.st40{stroke:#000000;stroke-width:0.5873;stroke-miterlimit:10;}&#10;	.st41{fill:#FFFFFF;stroke:#000000;stroke-width:0.5906;stroke-miterlimit:10;}&#10;	.st42{stroke:#000000;stroke-width:0.5754;stroke-miterlimit:10;}&#10;	.st43{fill:#FFFFFF;stroke:#000000;stroke-width:0.5787;stroke-miterlimit:10;}&#10;	.st44{stroke:#000000;stroke-width:0.5159;stroke-miterlimit:10;}&#10;	.st45{fill:#FFFFFF;stroke:#000000;stroke-width:0.5159;stroke-miterlimit:10;}&#10;	.st46{fill:#FFFFFF;stroke:#000000;stroke-width:0.5482;stroke-miterlimit:10;}&#10;	.st47{fill:#FFFFFF;stroke:#000000;stroke-width:0.5595;stroke-miterlimit:10;}&#10;	.st48{fill:#FFFFFF;stroke:#000000;stroke-width:0.6901;stroke-miterlimit:10;}&#10;	.st49{fill:#FFFFFF;stroke:#000000;stroke-width:0.5796;stroke-miterlimit:10;}&#10;</style>&#10;<g
   id="g1"
   transform="matrix(0.99697336,0,0,1,0.00181585,-6.6101703e-8)">&#10;	<rect
   x="0.60000002"
   class="st0"
   width="350"
   height="250"
   id="rect1"
   y="0" />&#10;</g>&#10;<radialGradient
   id="SVGID_1_"
   cx="179.5077"
   cy="107.3515"
   r="100.9949"
   gradientUnits="userSpaceOnUse"
   gradientTransform="translate(-7.4152538,3.177966)">&#10;	<stop
   offset="0.8073"
   style="stop-color:#00AAEC"
   id="stop1" />&#10;	<stop
   offset="0.8391"
   style="stop-color:#0497D0"
   id="stop2" />&#10;	<stop
   offset="0.908"
   style="stop-color:#106788"
   id="stop3" />&#10;	<stop
   offset="1"
   style="stop-color:#202020"
   id="stop4" />&#10;</radialGradient>&#10;<ellipse
   class="st1"
   cx="172.09476"
   cy="110.52796"
   rx="99.760002"
   ry="102.21"
   id="ellipse4"
   style="fill:url(#SVGID_1_)" />&#10;<path
   class="st2"
   d="m 238.31475,132.82797 c -2.63,-1.41 -4.68,-4.59 -4.12,-7.82 0.23,-1.34 1.03,-2.57 1.96,-3.42 -0.57,-0.49 -1.14,-0.97 -1.6,-1.71 -1.83,-2.93 -1.96,-7.33 0,-10.38 1.26,-2.2 3.1,-2.93 4.01,-3.42 1.48,-0.74 2.87,-0.86 3.67,-0.86 1.26,0 2.41,0.25 3.44,0.86 0.23,-0.74 0.46,-1.34 1.03,-1.95 0.8,-0.86 1.83,-1.34 2.98,-1.34 1.16,0 2.3,0.49 2.98,1.34 1.14,1.34 0.91,11.36 0.91,11.98 0,0.49 0,0.97 0,1.46 0,0.97 0,1.95 0,2.93 0,1.07 -0.04,2.26 -0.11,4.65 -0.07,2.36 -0.1,2.83 -0.37,3.56 -0.45,1.21 -1.13,2.01 -1.4,2.3 -1.39,1.52 -3.12,2.07 -3.92,2.27 -1.04,0.31 -2.66,0.67 -4.66,0.59 -1.3,-0.04 -3.06,-0.1 -4.8,-1.04 z m 4.36,-9.54 c 0.11,0.12 0.69,0.37 1.14,0.37 0.11,0 0.11,0 0.11,0 0.11,-0.12 0.11,-0.37 0.11,-0.74 -0.32,0.14 -0.78,0.37 -1.36,0.37 z"
   id="path4" />&#10;<path
   class="st3"
   d="m 240.67475,107.12797 c 1.04,-1.71 2.48,-2.32 3.39,-2.69 0.52,-0.25 3.52,-1.59 6.24,0 1.95,1.09 2.61,2.93 3.13,2.69 0.78,-0.37 -0.65,-3.91 0.78,-5.37 0.78,-0.86 2.61,-0.74 3.39,0 0.65,0.62 0.39,9.04 0.39,11.36 0,4.53 0.26,11.72 -0.39,12.95 -1.3,2.57 -4.81,3.17 -6.78,3.54 -1.69,0.25 -4.3,0.74 -6.78,-0.86 -1.43,-0.86 -3.91,-3.05 -3.39,-5.37 0.26,-1.46 1.69,-2.82 2.87,-2.69 1.3,0.12 1.43,1.71 3.39,2.69 0.26,0.12 2.48,1.22 4.04,0 1.69,-1.46 1.3,-5.25 0,-6.11 -0.91,-0.62 -1.82,0.62 -4.04,0.74 -0.52,0 -4.17,0.25 -6.11,-2.69 -1.68,-2.45 -1.55,-5.99 -0.13,-8.19 z"
   id="path5" />&#10;<path
   class="st4"
   d="m 204.35475,133.02797 c -0.83,0 -2.03,-0.12 -3.1,-0.7 -1.42,-0.81 -2.39,-2.08 -2.51,-3.93 -0.12,-1.15 0.12,-2.32 0.36,-3.7 0.36,-1.62 0.71,-3.7 0.71,-6.23 0,-1.38 -0.12,-2.55 -0.24,-3.58 -0.12,-1.38 -0.24,-2.55 -0.12,-3.58 0.24,-1.73 1.07,-3 2.51,-3.7 0.71,-0.35 1.42,-0.47 2.27,-0.47 1.19,0 1.78,0.35 2.74,0.81 1.42,0.81 2.15,2.08 2.27,3.82 0.12,1.15 -0.12,2.2 -0.47,3.47 -0.24,1.15 -0.47,2.43 -0.59,3.93 -0.12,2.32 0.83,4.17 1.19,5.78 0.24,1.27 0.47,2.32 0.47,3.47 -0.12,1.73 -0.95,3.12 -2.39,3.82 -1.09,0.67 -2.27,0.79 -3.1,0.79 z"
   id="path6" />&#10;<path
   class="st5"
   d="m 231.61475,134.63797 c -1.17,0 -2.25,-0.62 -2.99,-1.73 -1.28,-1.86 -1.7,-4.09 -2.03,-6.19 -0.32,-1.61 -0.64,-3.34 -1.38,-5.32 -0.32,-0.75 -1.06,-2.73 -1.38,-3.21 v 0 c -0.53,0 -1.17,1.11 -2.03,3.21 -0.74,1.98 -0.96,3.71 -1.17,5.32 -0.21,2.1 -0.43,4.21 -1.82,6.19 -0.74,1.11 -1.82,1.73 -2.99,1.73 -1.06,0 -2.25,-0.5 -2.99,-1.48 -1.59,-1.86 -1.93,-5.19 -1.93,-7.67 -0.11,-5.57 1.49,-13.36 5.12,-18.07 2.14,-2.85 4.9,-4.46 7.57,-4.46 0.11,0 0.21,0 0.32,0 2.88,0.12 5.45,1.86 7.79,5.07 3.52,5.07 5.01,12.99 4.9,18.18 -0.11,3.09 -0.74,5.44 -1.82,6.8 -0.92,1.01 -2.09,1.63 -3.17,1.63 z"
   id="path7" />&#10;<path
   class="st6"
   d="m 217.14475,128.17797 c -2.46,-2.96 -1.49,-15.72 3.2,-21.91 0.64,-0.87 2.99,-3.84 6.4,-3.59 3.41,0.12 5.66,3.21 6.4,4.33 4.37,6.31 5.55,18.31 3.2,21.28 -0.85,1.11 -2.46,1.11 -3.2,0 -1.82,-2.73 -1.28,-6.07 -3.2,-10.88 -1.49,-3.59 -2.03,-4.58 -3.2,-4.58 -1.17,0 -2.25,0.87 -3.73,4.58 -1.93,4.82 -0.85,8.29 -2.67,10.88 -0.74,1 -2.35,1 -3.2,-0.11 z"
   id="path8" />&#10;<path
   class="st7"
   d="m 204.73475,111.95797 c -3.04,0 -5.49,-2.5 -5.49,-5.56 0,-2.72 2.46,-5.56 5.49,-5.56 3.03,0 4.9,2.5 4.9,5.56 0,3.06 -1.86,5.56 -4.9,5.56 z"
   id="path9" />&#10;<path
   class="st8"
   d="m 204.64475,103.55797 c 0,1.89 1.09,3.51 3.68,3.51 2.59,0 4.5,-1.62 4.5,-3.51 0,-1.89 -2.04,-3.51 -4.5,-3.51 -2.44,-0.02 -3.68,1.6 -3.68,3.51 z"
   id="path10" />&#10;<path
   class="st9"
   d="m 206.42475,107.37797 c -2.93,1 -0.97,3.91 -0.83,9.07 0.14,7.43 -3.48,10.95 0,12.35 1.66,0.63 4.45,0.63 5.84,0 3.48,-1.38 -1.39,-4.91 -0.83,-11.72 0.28,-5.16 3.07,-8.06 0,-9.32 -1.27,-0.76 -2.65,-0.89 -4.18,-0.38 z"
   id="path11" />&#10;<path
   class="st10"
   d="m 186.41475,133.63797 c -1.29,-0.13 -2.6,-0.65 -3.53,-1.67 -1.76,-1.8 -1.76,-4.13 -1.76,-8.51 0,-1.41 0,-3.22 -0.12,-5.54 0,-1.8 -0.12,-3.22 -0.12,-4.52 -0.23,-4.39 -0.35,-6.71 1.29,-8.64 0.94,-1.15 2.36,-1.8 3.77,-1.8 1.29,0.13 2.48,0.78 3.18,1.8 0.35,0.52 0.59,1.02 0.7,1.54 0.59,-0.39 1.29,-0.91 2.13,-1.41 1.53,-0.91 3.07,-1.67 4.47,-1.54 0.82,0 1.53,0.39 2.24,1.02 2.24,2.06 2.13,6.45 2.13,7.73 -0.12,1.41 -0.47,4.9 -2.36,6.19 -0.47,0.39 -1.06,0.52 -1.53,0.52 -0.94,0 -1.64,-0.65 -2.36,-1.15 -0.47,-0.39 -0.94,-0.65 -1.29,-0.78 -0.12,0 -0.12,0 -0.23,0 -0.7,0.13 -1.29,1.15 -1.64,1.8 -0.7,1.54 -0.47,3.48 -0.23,5.54 0.23,2.45 0.59,5.15 -0.82,7.34 -0.98,1.44 -2.38,2.08 -3.92,2.08 z"
   id="path12" />&#10;<path
   class="st11"
   d="m 187.17475,126.87797 c -1.29,-1.45 -0.82,-3.69 -1.06,-12.14 -0.23,-7.65 -0.7,-9.89 0.47,-11.34 1.06,-1.31 3.18,-1.45 4,-0.13 0.7,1.05 0.23,2.51 0.82,3.04 0.82,0.8 2.01,-0.93 4.36,-2.24 1.88,-1.05 3.65,-1.98 4.71,-0.93 1.76,1.71 1.53,8.44 0,9.63 -1.17,0.93 -2.48,-2.24 -4.71,-1.71 -1.76,0.4 -2.83,2.78 -3.07,3.04 -2.13,4.62 0.82,10.02 -0.94,12.8 -1.04,1.69 -3.41,1.31 -4.58,-0.02 z"
   id="path13" />&#10;<path
   class="st12"
   d="M 52.416949,177.4"
   id="path14" />&#10;<path
   class="st12"
   d="M 46.416949,147.1"
   id="path15" />&#10;<path
   class="st12"
   d="M 44.516949,150.1"
   id="path16" />&#10;<path
   class="st13"
   d="M 43.616949,160.8"
   id="path17" />&#10;<path
   class="st13"
   d="M 64.450847,139.3"
   id="path18" />&#10;<path
   class="st14"
   d="M 116.32475,49.277966"
   id="path19" />&#10;<path
   class="st15"
   d="m 202.22475,100.40797 c -1.17,0 -2.25,-0.640002 -2.99,-1.780004 -1.28,-1.91 -1.7,-4.2 -2.03,-6.36 -0.32,-1.65 -0.64,-3.43 -1.38,-5.47 -0.32,-0.77 -1.06,-2.81 -1.38,-3.3 v 0 c -0.53,0 -1.17,1.14 -2.03,3.3 -0.74,2.04 -0.96,3.82 -1.17,5.47 -0.21,2.16 -0.43,4.33 -1.82,6.36 -0.74,1.140002 -1.82,1.780004 -2.99,1.780004 -1.06,0 -2.25,-0.510002 -2.99,-1.520004 -1.59,-1.91 -1.93,-5.34 -1.93,-7.89 -0.11,-5.72 1.49,-13.74 5.12,-18.58 2.14,-2.93 4.9,-4.58 7.57,-4.58 0.11,0 0.21,0 0.32,0 2.88,0.13 5.45,1.91 7.79,5.21 3.52,5.21 5.01,13.36 4.9,18.7 -0.11,3.18 -0.74,5.6 -1.82,6.99 -0.92,1.030002 -2.09,1.670004 -3.17,1.670004 z"
   id="path20" />&#10;<g
   class="st16"
   id="g25"
   transform="translate(-26.483051)">&#10;	<g
   id="g24">&#10;		<path
   class="st17"
   d="m 72.2,228.7 c 0,-0.1 0,-0.1 0,0 l -8.3,7.2 8.3,7 c 0,-0.1 0,-0.1 0,-0.1 z"
   id="path21" />&#10;		<path
   class="st17"
   d="m 62.7,236.9 -3.4,2.9 c -0.2,0.1 -0.4,0.2 -0.6,0.2 -0.2,0 -0.4,-0.1 -0.6,-0.2 l -3.4,-2.9 -8.4,7.3 c 0.2,0.1 0.4,0.1 0.7,0.1 h 23.4 c 0.3,0 0.7,-0.1 0.9,-0.2 z"
   id="path22" />&#10;		<path
   class="st17"
   d="m 58.7,238.2 12.7,-11 c -0.3,-0.1 -0.6,-0.3 -1,-0.3 H 47 c -0.5,0 -0.9,0.2 -1.2,0.4 z"
   id="path23" />&#10;		<path
   class="st17"
   d="m 45,228.9 v 13.7 c 0,0.2 0,0.3 0.1,0.5 l 8.2,-7.2 z"
   id="path24" />&#10;	</g>&#10;</g>&#10;<path
   class="st18"
   d="m 188.76475,93.847966 c -2.46,-3.05 -1.49,-16.16 3.2,-22.53 0.64,-0.9 2.99,-3.94 6.4,-3.69 3.41,0.13 5.66,3.3 6.4,4.46 4.37,6.49 5.55,18.82 3.2,21.89 -0.85,1.14 -2.46,1.14 -3.2,0 -1.82,-2.81 -1.28,-6.24 -3.2,-11.19 -1.49,-3.69 -2.03,-4.71 -3.2,-4.71 -1.17,0 -2.25,0.9 -3.73,4.71 -1.93,4.96 -0.85,8.53 -2.67,11.19 -0.75,1.01 -2.35,1.01 -3.2,-0.13 z"
   id="path25" />&#10;<rect
   x="53.516949"
   y="227.60002"
   class="st19"
   width="291.89999"
   height="17.200001"
   id="rect25" />&#10;<text
   class="st20 st21 st22"
   id="text25"
   x="53.51685"
   y="242.90051">Woodringj99@gmail.com</text>&#10;<ellipse
   class="st23"
   cx="172.03476"
   cy="84.117958"
   rx="10.67"
   ry="15.65"
   id="ellipse25" />&#10;<ellipse
   class="st24"
   cx="175.84476"
   cy="81.117958"
   rx="8.8599997"
   ry="13.23"
   id="ellipse26" />&#10;<path
   class="st25"
   d="M 142.15475,98.287966"
   id="path26" />&#10;<path
   class="st25"
   d="M 141.41475,98.287966"
   id="path27" />&#10;<path
   class="st25"
   d="M 145.25475,98.287966"
   id="path28" />&#10;<path
   class="st26"
   d="m 169.94475,134.25797 c -0.64,0.13 -1.28,0.13 -1.93,0 -3.73,-0.26 -5.98,-1.01 -7.47,-2.68 -1.38,-1.53 -2.25,-4.21 -2.14,-7.01 0.11,-3.18 1.28,-6.12 3.2,-7.91 1.28,-1.14 2.88,-1.91 4.48,-2.04 0.53,0 1.06,0 1.49,0 -0.11,-0.51 -0.11,-1.14 -0.11,-1.66 -0.21,-3.95 0.53,-6.88 2.14,-8.68 0.96,-1.14 2.46,-1.78 3.95,-1.91 1.7,-0.13 3.41,0.26 4.69,1.27 1.93,1.53 2.14,4.85 2.14,7.52 0,3.05 -0.43,7.27 -0.96,13.13 l -0.11,0.9 v 0.13 c -0.11,0.9 -0.21,2.81 -0.96,4.21 -1.93,3.44 -5.55,4.34 -6.62,4.6 -0.73,0 -1.26,0 -1.79,0.13 z"
   id="path29" />&#10;<path
   class="st27"
   d="m 172.53475,115.05797 c -1.38,-1.66 -4.9,-1.53 -7.04,0.51 -2.99,2.68 -2.99,8.55 -0.96,10.83 1.17,1.27 2.88,1.91 6.4,2.17 1.17,0.13 2.25,-0.13 3.41,-0.39 1.38,-0.26 4.05,-1.14 5.45,-3.57 0.53,-1.01 0.64,-2.56 0.64,-3.18 1.06,-11.99 1.59,-17.47 -0.32,-19 -1.82,-1.4 -4.9,-1.27 -6.51,0.39 -3.31,3.57 -0.11,14.16 -0.32,14.16 0.01,0.25 -0.1,-1.02 -0.75,-1.92 z"
   id="path30" />&#10;<path
   class="st28"
   d="M 222.51475,127.24797"
   id="path31" />&#10;<path
   class="st29"
   d="M 241.27475,156.93797"
   id="path32" />&#10;<path
   class="st30"
   d="M 217.50475,144.81797"
   id="path33" />&#10;<path
   class="st14"
   d="M 115.52475,64.237966"
   id="path34" />&#10;<path
   class="st14"
   d="M 117.56475,69.227966"
   id="path35" />&#10;<path
   class="st14"
   d="M 115.52475,70.287966"
   id="path36" />&#10;<path
   class="st31"
   d="M 191.17475,122.21797"
   id="path37" />&#10;<path
   class="st32"
   d="M 255.34475,111.52797"
   id="path38" />&#10;<path
   class="st33"
   d="M 205.89475,146.59797"
   id="path39" />&#10;<path
   class="st34"
   d="m 96.884749,138.90797 c 1.94,1.34 4.850001,3.12 8.940001,4.57 17.12,6.47 35.31,2.12 53.17,-2.35 36.81,-9.26 83.21,-7.25 88.59,2.35 0.11,0.22 1.29,2.35 0,4.57 -7,12.05 -75.13,3.91 -88.59,2.35 0,0 -27.02,-3.23 -53.17,2.35 -7.000001,1.45 -8.610001,4.13 -8.940001,4.57 -1.08,2.12 -0.33,4.13 0,4.57 3.560001,6.81 45.320001,2.01 62.000001,0.22 21.43,-2.24 51.57,-4.57 88.59,-4.91"
   id="path40" />&#10;<path
   class="st35"
   d="m 142.98475,85.697966 c -0.21,0.13 -0.64,0.51 -1.17,1.52 -0.64,1.27 -0.96,2.81 -0.74,3.69 0.32,1.91 3.31,2.81 5.45,2.29 2.99,-0.64 5.22,-4.07 6.09,-7.12 0.74,-2.55 0.74,-4.96 0.64,-6.99 0,-0.13 0,-0.38 0,-0.51 v 0 c 0,-1.91 -0.11,-4.71 1.59,-6.11 1.06,-0.9 2.25,-0.9 3.63,0 0.85,0.51 1.7,1.4 2.56,2.29 0.64,0.64 1.59,1.65 2.14,1.91 0.21,-0.77 0.11,-2.81 -0.64,-4.71 -1.38,-3.05 -5.45,-3.05 -10.99,-3.05 -5.54,0 -9.61,0 -10.99,3.05 -0.74,1.65 -0.74,3.94 -0.53,4.84 0.53,-0.26 1.49,-1.14 2.14,-1.78 1.82,-1.65 4.16,-3.82 6.19,-2.04 2.03,1.78 2.25,6.36 1.82,10.05 -0.32,2.29 -1.06,6.11 -3.1,6.75 -1.7,0.51 -2.78,-1.65 -3.31,-2.93 -0.25,-0.27 -0.57,-1.02 -0.78,-1.15 z"
   id="path41" />&#10;<path
   class="st36"
   d="m 144.33475,101.28797 c -1.28,0 -2.56,-0.26 -3.63,-0.77 -2.35,-1.010002 -3.84,-2.930004 -4.37,-5.600004 -0.64,-3.3 0.53,-6.75 1.7,-8.66 0.32,-0.51 0.53,-0.9 0.85,-1.27 -0.85,0 -1.49,-0.38 -1.93,-0.77 -2.35,-2.16 -2.25,-8.14 -0.53,-11.83 2.46,-5.47 7.68,-5.47 14.3,-5.47 6.62,0 11.73,0 14.3,5.47 0.85,1.91 1.38,4.2 1.38,6.24 0,2.55 -0.64,4.58 -1.93,5.72 -1.06,0.9 -2.25,0.9 -3.63,0 -0.85,-0.51 -1.7,-1.4 -2.56,-2.16 -0.64,-0.51 -1.49,-1.4 -2.03,-1.78 0,0.38 0,0.9 0,1.14 v 0 c 0,0.13 0,0.26 0,0.38 0.11,2.29 0.11,5.47 -0.96,9.03 -1.59,5.34 -5.22,9.280004 -9.08,10.050004 -0.71,0.28 -1.34,0.28 -1.88,0.28 z m 0.35,-20.120004 c 0.33,-0.05 1.04,-0.1 1.8,0.27 1.36,0.66 1.73,2.1 1.78,2.31 0.22,-0.73 0.33,-1.34 0.4,-1.78 0.05,-0.34 0.08,-0.66 0.11,-0.88 0.04,-0.45 0.08,-0.82 0.09,-1.22 0.02,-0.97 0.03,-1.55 -0.3,-1.76 -0.06,-0.04 -0.37,-0.22 -1.07,0.18 -0.26,0.14 -2.6,2.18 -2.81,2.88 z m 17.58,-1 z"
   id="path42" />&#10;<path
   class="st37"
   d="m 157.07475,78.697966 c 0,2.16 0.21,5.21 -0.85,8.53 -1.28,4.07 -4.16,7.89 -7.57,8.53 -2.56,0.51 -6.94,-0.26 -7.57,-4.33 -0.64,-3.56 1.82,-8.53 3.84,-8.53 1.93,0 2.56,4.58 3.84,4.33 1.7,-0.38 2.78,-9.8 0.74,-11.58 -2.14,-1.91 -6.4,5.72 -8.42,3.82 -1.28,-1.14 -1.28,-5.6 0,-8.53 1.93,-4.33 6.4,-4.33 12.7,-4.33 6.3,0 10.67,0 12.7,4.33 1.38,3.05 1.49,7.25 0,8.53 -2.03,1.78 -6.3,-6.11 -8.42,-4.33 -0.99,0.51 -0.99,1.78 -0.99,3.56"
   id="path43" />&#10;<path
   class="st38"
   d="M 118.11475,73.607966"
   id="path44" />&#10;<path
   class="st39"
   d="M 114.29475,66.367966"
   id="path45" />&#10;<ellipse
   class="st40"
   cx="149.73476"
   cy="119.08797"
   rx="10.67"
   ry="15.65"
   id="ellipse45" />&#10;<ellipse
   class="st41"
   cx="152.55476"
   cy="116.08797"
   rx="8.8599997"
   ry="13.23"
   id="ellipse46" />&#10;<ellipse
   class="st42"
   cx="130.95476"
   cy="119.08797"
   rx="10.67"
   ry="15.65"
   id="ellipse47" />&#10;<ellipse
   class="st43"
   cx="133.88477"
   cy="116.08797"
   rx="8.8599997"
   ry="13.23"
   id="ellipse48" />&#10;<path
   class="st44"
   d="m 114.66475,134.16797 c -0.11,0 -0.11,0 -0.21,0 -2.56,-0.24 -3.73,-3.68 -4.8,-6.64 -0.32,-1.06 -0.74,-2.02 -1.06,-2.84 -0.21,-0.48 -0.43,-0.84 -0.53,-0.94 -0.11,0.12 -0.32,0.48 -0.53,0.94 -0.32,0.84 -0.74,1.78 -1.06,2.84 -1.06,2.96 -2.25,6.4 -4.8,6.52 -0.11,0 -0.11,0 -0.21,0 -2.250001,0 -4.160001,-2.74 -6.190001,-8.42 -1.38,-4.04 -2.35,-8.2 -2.78,-11.04 -0.85,-6.18 0,-8.08 0.74,-9.14 0.43,-0.6 1.28,-1.3 2.67,-1.3 1.49,0 2.88,0.84 2.88,0.84 1.490001,0.94 2.670001,3.32 3.520001,7.12 0.21,0.84 0.32,1.54 0.43,2.38 1.49,-1.54 3.31,-2.5 5.22,-2.5 1.82,0 3.63,0.84 5.01,2.26 0.43,-3.92 1.49,-7.96 3.63,-9.26 0.43,-0.24 1.49,-0.94 2.78,-0.94 1.06,0 2.03,0.48 2.78,1.42 0.74,0.94 1.06,2.38 1.17,4.52 0.11,1.54 -0.11,3.32 -0.32,5.46 -0.53,3.92 -1.59,8.3 -2.78,11.76 -1.72,4.71 -3.52,6.96 -5.56,6.96 z"
   id="path48" />&#10;<path
   class="st45"
   d="m 96.534749,104.10797 c -0.96,1.3 1.49,25.05 6.830001,24.7 2.88,-0.24 3.63,-10.44 6.51,-10.44 2.88,0 3.63,10.2 6.51,10.44 3.84,0.36 8.76,-21.25 6.3,-24.7 -0.85,-1.18 -2.46,-0.48 -3.31,0 -2.14,1.42 -3.2,7.48 -2.99,14.24 -1.38,-6.06 -3.2,-7 -6.51,-7 -3.31,0 -5.12,0.94 -6.51,7 0.21,-6.88 -1.49,-12.94 -3.520001,-14.24 -0.22,-0.12 -2.36,-1.2 -3.31,0 z"
   id="path49" />&#10;<path
   class="st46"
   d="M 184.26475,143.87797"
   id="path50" />&#10;<path
   class="st46"
   d="M 182.24475,133.18797"
   id="path51" />&#10;<path
   class="st46"
   d="M 183.58475,133.89797"
   id="path52" />&#10;<path
   class="st47"
   d="M 172.09475,129.85797"
   id="path53" />&#10;<path
   class="st48"
   d="M 201.80475,125.23797"
   id="path54" />&#10;<path
   class="st48"
   d="M 202.25475,128.79797"
   id="path55" />&#10;<path
   class="st49"
   d="M 88.024749,113.74797"
   id="path56" />&#10;</svg>
